<?xml version="1.0" standalone="no"?>
<!DOCTYPE svg PUBLIC "-//W3C//DTD SVG 20010904//EN"
 "http://www.w3.org/TR/2001/REC-SVG-20010904/DTD/svg10.dtd">
<svg version="1.0" xmlns="http://www.w3.org/2000/svg"
 width="1024.000000pt" height="1024.000000pt" viewBox="0 0 1024.000000 1024.000000"
 preserveAspectRatio="xMidYMid meet">
<metadata>
Created by potrace 1.16, written by Peter Selinger 2001-2019
</metadata>
<g transform="translate(0.000000,1024.000000) scale(0.100000,-0.100000)"
fill="#000000" stroke="none">
<path d="M1775 6409 c-337 -46 -626 -254 -766 -553 -57 -123 -72 -203 -66
-361 3 -107 9 -144 31 -210 60 -177 191 -335 341 -412 92 -47 132 -60 233 -73
138 -18 273 17 369 96 24 20 42 38 40 40 -2 2 -30 -6 -63 -18 -82 -29 -196
-29 -286 1 -218 73 -358 270 -358 506 0 210 111 389 298 483 102 51 171 65
288 60 81 -3 100 -8 166 -41 80 -39 137 -92 181 -168 25 -43 61 -149 51 -149
-3 0 -20 11 -38 25 -73 56 -282 137 -381 147 -37 4 -43 -14 -44 -143 -1 -100
14 -170 51 -243 29 -57 113 -142 172 -175 62 -34 115 -55 122 -49 2 3 -14 56
-36 118 -22 62 -38 115 -35 118 10 10 153 -20 254 -54 137 -45 293 -127 410
-215 52 -38 100 -68 107 -65 7 3 30 30 50 61 36 54 38 55 57 38 63 -58 317
-400 418 -564 34 -55 80 -120 103 -146 63 -70 69 -86 53 -125 -33 -80 -83 -85
-206 -23 -127 63 -237 97 -469 145 -277 57 -384 109 -529 258 l-73 74 0 -55
c0 -110 54 -231 135 -306 l47 -43 -86 -200 c-48 -111 -85 -202 -84 -203 3 -3
118 80 345 246 81 59 82 60 135 54 218 -26 338 -60 492 -137 86 -43 112 -52
172 -56 61 -4 80 -1 125 20 111 51 168 126 177 233 3 39 -1 83 -8 111 -17 60
-152 254 -502 721 l-280 373 -29 112 c-80 308 -257 527 -532 659 -157 75 -383
111 -552 88z"/>
<path d="M8885 5740 c-154 -28 -267 -106 -328 -227 -36 -69 -41 -93 -97 -453
-38 -237 -50 -338 -45 -375 15 -116 82 -203 191 -245 81 -32 249 -33 341 -3
152 50 248 151 288 303 l13 50 -109 0 c-96 0 -110 -2 -115 -17 -17 -54 -28
-74 -57 -103 -44 -45 -91 -63 -163 -63 -68 -1 -113 19 -147 65 -29 39 -26 93
28 423 35 221 53 303 72 343 82 172 363 152 363 -25 l0 -43 110 0 110 0 0 63
c0 35 -7 85 -17 112 -23 69 -101 146 -175 173 -66 25 -191 35 -263 22z"/>
<path d="M4206 5713 c-3 -16 -48 -300 -101 -633 -52 -333 -98 -617 -101 -632
l-6 -28 104 0 104 0 52 338 c61 387 79 543 89 732 4 81 9 126 14 115 4 -11 22
-139 39 -285 17 -146 33 -277 36 -292 6 -28 6 -28 93 -28 l88 0 138 313 c76
171 141 316 145 320 4 5 -8 -54 -26 -130 -55 -227 -91 -411 -144 -741 -27
-172 -50 -320 -50 -328 0 -11 20 -14 99 -14 l99 0 6 28 c3 15 49 299 101 632
52 333 98 617 101 633 l6 27 -149 0 -148 0 -120 -280 c-83 -195 -122 -275
-127 -263 -3 10 -16 124 -28 253 -11 129 -23 247 -26 263 l-6 27 -138 0 -138
0 -6 -27z"/>
<path d="M5576 5410 c-119 -19 -246 -101 -301 -195 -38 -64 -53 -117 -81 -279
-44 -258 -27 -363 73 -445 64 -53 134 -74 248 -74 225 -2 382 96 446 277 25
72 69 339 69 418 0 35 -8 86 -17 113 -22 67 -93 136 -166 163 -66 25 -187 35
-271 22z m122 -191 c67 -14 103 -53 109 -116 6 -59 -41 -342 -63 -386 -39 -76
-98 -110 -194 -111 -106 0 -160 46 -160 138 0 54 35 285 51 336 23 72 78 122
154 141 43 10 49 10 103 -2z"/>
<path d="M6773 5410 c-85 -18 -169 -82 -207 -157 -9 -18 -18 -33 -19 -33 -2 0
2 35 9 78 20 123 29 112 -91 112 -100 0 -105 -1 -110 -22 -2 -13 -36 -225 -75
-473 -38 -247 -72 -460 -75 -472 -5 -23 -4 -23 105 -23 106 0 110 1 115 23 3
12 25 153 50 312 46 294 60 353 97 400 61 77 210 94 273 30 50 -49 50 -74 -8
-434 l-53 -332 110 3 110 3 53 330 c60 368 64 456 26 530 -27 51 -68 90 -116
110 -47 19 -139 27 -194 15z"/>
<path d="M7736 5410 c-119 -19 -246 -101 -301 -195 -38 -64 -53 -117 -81 -279
-44 -258 -27 -363 73 -445 64 -53 134 -74 248 -74 225 -2 382 96 446 277 25
72 69 339 69 418 0 35 -8 86 -17 113 -22 67 -93 136 -166 163 -66 25 -187 35
-271 22z m122 -191 c67 -14 103 -53 109 -116 6 -59 -41 -342 -63 -386 -39 -76
-98 -110 -194 -111 -106 0 -160 46 -160 138 0 54 35 285 51 336 23 72 78 122
154 141 43 10 49 10 103 -2z"/>
</g>
</svg>
